<svg width="128" height="128" viewBox="0 0 128 128" fill="none" xmlns="http://www.w3.org/2000/svg">
  <rect width="128" height="128" rx="30" fill="#07141F"/>
  <path d="M28 39C28 31.8203 33.8203 26 41 26H89C96.1797 26 102 31.8203 102 39V52H90V42C90 39.7909 88.2091 38 86 38H44C41.7909 38 40 39.7909 40 42V48C40 50.2091 41.7909 52 44 52H77C90.2548 52 101 62.7452 101 76C101 89.2548 90.2548 100 77 100H39C31.8203 100 26 94.1797 26 87V74H38V84C38 86.2091 39.7909 88 42 88H74C80.6274 88 86 82.6274 86 76C86 69.3726 80.6274 64 74 64H41C33.8203 64 28 58.1797 28 51V39Z" fill="#67D6C1"/>
  <path d="M88 28L104 44" stroke="#F6B95A" stroke-width="8" stroke-linecap="round"/>
</svg>
